<svg width="218" height="59" viewBox="0 0 218 59" fill="none" xmlns="http://www.w3.org/2000/svg">
<path d="M17.9567 56.191L11.9975 45.9595L20.743 30.9853L26.3004 40.5277L59.1069 40.5102L49.7979 56.3322L17.9567 56.191Z" fill="#FFAD64"/>
<path d="M64.9648 30.351L59.0056 40.5824L41.5506 40.5621L47.1086 31.0199L30.6901 2.86569L49.1677 2.94605L64.9648 30.351Z" fill="#ADD4D3"/>
<path d="M18.8748 2.81049H30.7932L39.5028 17.8053L28.3871 17.8049L11.9993 45.9767L2.83063 30.0743L18.8748 2.81049Z" fill="#FB8351"/>
<path fill-rule="evenodd" clip-rule="evenodd" d="M32.2463 0.441733L32.2108 0.380615H17.4668L0 30.0621L11.99 50.858L12.0047 50.8328L16.5374 58.6151L51.2023 58.7688L63.3759 38.0778H63.2949L67.792 30.3568L50.5939 0.521527L32.2463 0.441733ZM43.6518 20.2358H43.7437L35.0767 5.31451L47.7413 5.36955L62.1375 30.3442L57.6314 38.081L45.8226 38.0872L49.9399 31.0187L43.6518 20.2358ZM29.2438 5.24095L35.1536 15.3752L26.9712 15.3749L12.9627 39.4561L12.0072 41.0923L5.6619 30.0869L20.2831 5.24095H29.2438ZM23.5619 30.9653L29.8037 20.2353L37.9881 20.2356L44.2772 31.0201L40.159 38.0903L27.7154 38.0969L23.5619 30.9653ZM14.8338 45.9693L17.2085 41.8873L20.7398 35.8409L24.8853 42.9588L37.327 42.9522L37.3069 42.9867L54.7996 43.0072L48.3932 53.8959L19.3756 53.7672L14.8338 45.9693Z" fill="#333237"/>
<path d="M82.0712 50.3139V38.9366H77.8291V37.6594H87.9389V38.9366H83.6967V50.3139H82.0712Z" fill="white"/>
<path d="M92.4557 50.5109C90.7773 50.5109 89.5219 50.1114 88.6893 49.3123C87.8567 48.5133 87.4405 47.2818 87.4405 45.618C87.4405 44.1247 87.7973 42.9523 88.5109 42.1008C89.2377 41.2362 90.3809 40.8038 91.9403 40.8038C92.8653 40.8038 93.6252 40.9742 94.2199 41.3148C94.8278 41.6422 95.2772 42.1008 95.568 42.6903C95.8718 43.2667 96.0238 43.9217 96.0238 44.6553V46.4041H89.066C89.1188 47.1115 89.2708 47.6682 89.5218 48.0744C89.7862 48.4804 90.176 48.7751 90.6915 48.9586C91.22 49.1288 91.9139 49.214 92.7728 49.214C93.7375 49.214 94.623 49.0503 95.4291 48.7228V49.9804C95.0195 50.1507 94.5569 50.2817 94.0415 50.3734C93.5393 50.4651 93.0108 50.5109 92.4557 50.5109ZM89.066 45.2448H94.5767V44.4784C94.5767 43.7186 94.3719 43.1357 93.9622 42.7296C93.5658 42.3104 92.905 42.1008 91.9799 42.1008C90.8566 42.1008 90.0902 42.3628 89.6804 42.8868C89.2708 43.4107 89.066 44.1968 89.066 45.2448Z" fill="white"/>
<path d="M102.847 50.5109C101.208 50.5109 99.992 50.0917 99.1992 49.2533C98.4062 48.4019 98.0097 47.2032 98.0097 45.6574C98.0097 44.0199 98.459 42.8016 99.3577 42.0026C100.256 41.2035 101.466 40.8038 102.985 40.8038C103.607 40.8038 104.122 40.8497 104.532 40.9415C104.941 41.02 105.338 41.151 105.721 41.3344V42.6116C105.007 42.2711 104.195 42.1008 103.283 42.1008C102.12 42.1008 101.221 42.3759 100.587 42.9261C99.9523 43.4632 99.6352 44.3736 99.6352 45.6574C99.6352 46.8888 99.9128 47.7927 100.468 48.3691C101.023 48.9325 101.941 49.214 103.223 49.214C104.135 49.214 104.974 49.0438 105.741 48.7031V50C105.331 50.1704 104.888 50.2947 104.413 50.3734C103.95 50.4651 103.428 50.5109 102.847 50.5109Z" fill="white"/>
<path d="M107.563 50.3139V37.0698H109.188V42.002C109.625 41.6483 110.133 41.3601 110.715 41.1375C111.31 40.9146 111.997 40.8033 112.776 40.8033C113.913 40.8033 114.765 41.0785 115.334 41.6287C115.902 42.1789 116.186 43.0434 116.186 44.2224V50.3139H114.561V44.2814C114.561 43.4692 114.376 42.9059 114.006 42.5914C113.649 42.264 113.054 42.1002 112.221 42.1002C111.693 42.1002 111.144 42.2181 110.576 42.4539C110.021 42.6766 109.559 42.9714 109.188 43.3381V50.3139H107.563Z" fill="white"/>
<path d="M122.669 50.5108C121.347 50.5108 120.29 50.2226 119.497 49.6461C118.704 49.0697 118.308 48.2968 118.308 47.3274C118.308 46.4367 118.585 45.6703 119.14 45.0284C119.695 44.3865 120.455 43.8166 121.42 43.3189C120.904 42.808 120.468 42.3298 120.112 41.8845C119.755 41.4391 119.576 40.9019 119.576 40.2732C119.576 39.4871 119.847 38.8256 120.389 38.2885C120.944 37.7383 121.724 37.4633 122.728 37.4633C123.706 37.4633 124.466 37.7187 125.008 38.2295C125.549 38.7404 125.821 39.4216 125.821 40.2732C125.821 40.9806 125.629 41.5766 125.245 42.0613C124.862 42.546 124.314 43.0372 123.6 43.5351L126.891 46.8559C127.115 46.3712 127.228 45.7555 127.228 45.0087V44.7337H128.517V45.0087C128.517 45.5198 128.457 46.0175 128.338 46.5022C128.22 46.9869 128.047 47.4061 127.823 47.7598L129.607 49.5479L128.615 50.4322L127.029 48.8799C126.567 49.4431 125.966 49.8558 125.226 50.1178C124.486 50.3798 123.633 50.5108 122.669 50.5108ZM122.589 42.749C123.211 42.3692 123.68 42.009 123.997 41.6683C124.314 41.3146 124.473 40.8692 124.473 40.3322C124.473 39.8343 124.334 39.4413 124.056 39.1531C123.792 38.8519 123.349 38.7012 122.728 38.7012C122.094 38.7012 121.631 38.8584 121.341 39.1728C121.063 39.4871 120.924 39.8736 120.924 40.3322C120.924 40.7514 121.07 41.1378 121.36 41.4914C121.664 41.8451 122.074 42.2643 122.589 42.749ZM122.669 49.3514C123.435 49.3514 124.089 49.2401 124.631 49.0174C125.186 48.7815 125.655 48.4345 126.039 47.9759L122.411 44.3013C121.552 44.6944 120.911 45.1201 120.488 45.5786C120.079 46.024 119.874 46.5939 119.874 47.2882C119.874 47.9693 120.138 48.4868 120.667 48.8405C121.195 49.1811 121.863 49.3514 122.669 49.3514Z" fill="#FB8351"/>
<path d="M78.4695 28.474V10.9524H83.6296V24.556H91.5893V28.474H78.4695Z" fill="#FB8351"/>
<path d="M99.8905 28.7462C97.2922 28.7462 95.3709 28.1748 94.1266 27.0321C92.9007 25.8894 92.2877 24.2206 92.2877 22.0259C92.2877 19.8494 92.9099 18.1897 94.1541 17.047C95.3984 15.8862 97.3105 15.3057 99.8905 15.3057C102.489 15.3057 104.41 15.8862 105.654 17.047C106.917 18.1897 107.548 19.8494 107.548 22.0259C107.548 24.2206 106.926 25.8894 105.682 27.0321C104.438 28.1748 102.507 28.7462 99.8905 28.7462ZM99.8905 25.0187C100.732 25.0187 101.336 24.783 101.702 24.3113C102.086 23.8398 102.278 23.0779 102.278 22.0259C102.278 20.9921 102.086 20.2393 101.702 19.7678C101.336 19.278 100.732 19.0331 99.8905 19.0331C99.0672 19.0331 98.4724 19.278 98.1065 19.7678C97.7405 20.2393 97.5576 20.9921 97.5576 22.0259C97.5576 23.0779 97.7405 23.8398 98.1065 24.3113C98.4724 24.783 99.0672 25.0187 99.8905 25.0187Z" fill="#FB8351"/>
<path d="M115.191 33.2626C114.55 33.2626 113.855 33.2355 113.105 33.181C112.354 33.1448 111.641 33.0722 110.964 32.9634C110.305 32.8546 109.756 32.7276 109.317 32.5824V29.3175C109.811 29.4808 110.378 29.6169 111.019 29.7257C111.677 29.8345 112.345 29.9161 113.022 29.9706C113.699 30.0249 114.321 30.0522 114.889 30.0522C115.859 30.0522 116.618 29.9978 117.167 29.889C117.734 29.7983 118.018 29.6259 118.018 29.372C118.018 29.1544 117.926 29.0092 117.743 28.9367C117.56 28.8822 117.213 28.855 116.7 28.855H113.269C111.934 28.855 110.9 28.6465 110.168 28.2293C109.454 27.794 109.097 27.1501 109.097 26.2975C109.097 25.1004 109.765 24.2661 111.101 23.7945C110.351 23.4135 109.802 22.9329 109.454 22.3524C109.107 21.7721 108.933 21.0374 108.933 20.1486C108.933 18.4799 109.5 17.2555 110.634 16.4756C111.787 15.6957 113.443 15.3057 115.602 15.3057C116.06 15.3057 116.572 15.3419 117.139 15.4145C117.707 15.469 118.118 15.5234 118.375 15.5778H123.48L123.37 18.6794H121.641C121.97 19.0966 122.135 19.6045 122.135 20.2031C122.135 21.5272 121.741 22.5792 120.955 23.3592C120.186 24.1209 118.969 24.5019 117.304 24.5019C117.066 24.5019 116.81 24.4928 116.536 24.4746C116.261 24.4384 116.005 24.4112 115.767 24.393C115.364 24.4293 115.017 24.5019 114.724 24.6107C114.431 24.7195 114.285 24.9009 114.285 25.1548C114.285 25.3362 114.367 25.4632 114.532 25.5357C114.697 25.5902 114.925 25.6173 115.218 25.6173H118.21C119.546 25.6173 120.598 25.9257 121.366 26.5424C122.135 27.1591 122.519 28.066 122.519 29.2632C122.519 30.5328 121.924 31.5123 120.735 32.2016C119.546 32.9089 117.698 33.2626 115.191 33.2626ZM115.63 21.6995C116.435 21.6995 116.993 21.5634 117.304 21.2913C117.615 21.0193 117.771 20.5658 117.771 19.931C117.771 19.2961 117.615 18.8336 117.304 18.5434C116.993 18.2532 116.435 18.1081 115.63 18.1081C114.88 18.1081 114.331 18.2532 113.983 18.5434C113.654 18.8155 113.489 19.278 113.489 19.931C113.489 20.5477 113.644 21.0012 113.955 21.2913C114.285 21.5634 114.843 21.6995 115.63 21.6995Z" fill="#FB8351"/>
<path d="M131.895 28.7462C129.296 28.7462 127.375 28.1748 126.131 27.0321C124.905 25.8894 124.292 24.2206 124.292 22.0259C124.292 19.8494 124.914 18.1897 126.158 17.047C127.402 15.8862 129.315 15.3057 131.895 15.3057C134.493 15.3057 136.414 15.8862 137.658 17.047C138.922 18.1897 139.552 19.8494 139.552 22.0259C139.552 24.2206 138.93 25.8894 137.686 27.0321C136.441 28.1748 134.511 28.7462 131.895 28.7462ZM131.895 25.0187C132.736 25.0187 133.34 24.783 133.706 24.3113C134.09 23.8398 134.283 23.0779 134.283 22.0259C134.283 20.9921 134.09 20.2393 133.706 19.7678C133.34 19.278 132.736 19.0331 131.895 19.0331C131.072 19.0331 130.476 19.278 130.11 19.7678C129.744 20.2393 129.562 20.9921 129.562 22.0259C129.562 23.0779 129.744 23.8398 130.11 24.3113C130.476 24.783 131.072 25.0187 131.895 25.0187Z" fill="#FB8351"/>
<path d="M141.82 13.8631V10.1629H147.392V13.8631H141.82ZM142.231 28.4736V19.3047H140.339L140.777 15.5773H147.392V28.4736H142.231Z" fill="white"/>
<path d="M149.867 34.3509V15.5778H154.342L154.588 16.6115C155.118 16.1945 155.695 15.877 156.317 15.6594C156.958 15.4235 157.698 15.3057 158.541 15.3057C160.48 15.3057 161.972 15.7953 163.015 16.7748C164.075 17.7361 164.606 19.3777 164.606 21.6994C164.606 24.0031 164.048 25.7533 162.932 26.9505C161.816 28.1476 160.279 28.7461 158.321 28.7461C157.022 28.7461 155.924 28.5013 155.027 28.0115V34.3509H149.867ZM157.003 25.0187C157.754 25.0187 158.331 24.7557 158.733 24.2297C159.136 23.7037 159.337 22.8875 159.337 21.781C159.337 20.7109 159.144 19.9854 158.76 19.6045C158.394 19.2235 157.827 19.0331 157.058 19.0331C156.29 19.0331 155.613 19.287 155.027 19.7949V24.3658C155.321 24.5834 155.613 24.7467 155.906 24.8555C156.198 24.9643 156.564 25.0187 157.003 25.0187Z" fill="white"/>
<path d="M171.483 28.7461C170.367 28.7461 169.315 28.6646 168.327 28.5013C167.357 28.3562 166.589 28.1658 166.021 27.9299V24.2569C166.661 24.5472 167.421 24.7738 168.299 24.9371C169.196 25.1004 169.956 25.182 170.576 25.182C171.236 25.182 171.73 25.1639 172.059 25.1275C172.408 25.0913 172.58 24.9371 172.58 24.665C172.58 24.3567 172.279 24.1209 171.675 23.9576C171.072 23.7944 170.312 23.5585 169.398 23.2502C168.207 22.833 167.319 22.3434 166.734 21.781C166.149 21.2188 165.857 20.4026 165.857 19.3323C165.857 18.0446 166.369 17.0561 167.394 16.3668C168.418 15.6594 170.028 15.3057 172.223 15.3057C173.066 15.3057 173.935 15.3691 174.831 15.4961C175.727 15.623 176.432 15.7682 176.945 15.9314V19.5229C176.395 19.287 175.792 19.1147 175.134 19.0059C174.493 18.897 173.908 18.8426 173.377 18.8426C172.792 18.8426 172.269 18.8698 171.812 18.9243C171.354 18.9786 171.126 19.1328 171.126 19.3868C171.126 19.6769 171.383 19.8856 171.895 20.0125C172.425 20.1396 173.13 20.3391 174.008 20.6111C174.997 20.9013 175.764 21.2188 176.314 21.5634C176.881 21.908 177.275 22.3251 177.494 22.8149C177.731 23.3047 177.851 23.9122 177.851 24.6379C177.851 25.9438 177.31 26.9595 176.231 27.685C175.169 28.3924 173.586 28.7461 171.483 28.7461Z" fill="white"/>
<path d="M184.501 28.7456C182.982 28.7456 181.793 28.3195 180.933 27.467C180.074 26.6144 179.644 25.3629 179.644 23.7123V15.5773H184.803V23.3043C184.803 24.4287 185.38 24.9911 186.532 24.9911C186.953 24.9911 187.365 24.9004 187.768 24.719C188.17 24.5377 188.49 24.3109 188.728 24.0388V15.5773H193.888V28.4736H189.058L188.921 27.4941C188.409 27.8569 187.776 28.1562 187.027 28.392C186.295 28.6278 185.453 28.7456 184.501 28.7456Z" fill="white"/>
<path d="M196.346 28.474V15.5778H201.121L201.258 16.6115C201.826 16.2307 202.457 15.9224 203.152 15.6866C203.866 15.4326 204.644 15.3057 205.486 15.3057C206.326 15.3057 206.986 15.4235 207.461 15.6594C207.938 15.8951 208.322 16.2397 208.614 16.6932C209.199 16.2761 209.859 15.9405 210.591 15.6866C211.34 15.4326 212.219 15.3057 213.226 15.3057C214.744 15.3057 215.86 15.7047 216.574 16.5027C217.288 17.2827 217.644 18.4799 217.644 20.0942V28.474H212.566V20.6928C212.566 20.1123 212.448 19.7042 212.21 19.4684C211.973 19.2144 211.579 19.0875 211.029 19.0875C210.316 19.0875 209.73 19.3415 209.274 19.8493C209.309 20.0851 209.328 20.3119 209.328 20.5295C209.328 20.729 209.328 20.9558 209.328 21.2097V28.474H204.552V20.6111C204.552 20.0851 204.461 19.7042 204.278 19.4684C204.094 19.2144 203.747 19.0875 203.235 19.0875C202.887 19.0875 202.548 19.1782 202.219 19.3596C201.889 19.541 201.596 19.7586 201.341 20.0125V28.474H196.346Z" fill="white"/>
<path d="M138.011 50.6733C136.636 50.6733 135.493 50.4177 134.581 49.9069C133.683 49.3828 133.01 48.6558 132.56 47.7257C132.11 46.7826 131.886 45.6822 131.886 44.4246C131.886 43.0491 132.098 41.8504 132.52 40.8287C132.943 39.8069 133.603 39.0208 134.502 38.4706C135.402 37.9074 136.563 37.6257 137.991 37.6257C138.731 37.6257 139.398 37.6781 139.993 37.7829C140.601 37.8877 141.169 38.0318 141.699 38.2153V39.63C141.169 39.4335 140.608 39.2829 140.013 39.178C139.418 39.0602 138.791 39.0012 138.131 39.0012C136.98 39.0012 136.068 39.2174 135.395 39.6497C134.721 40.0819 134.238 40.7042 133.947 41.5164C133.656 42.3286 133.511 43.298 133.511 44.4246C133.511 45.9834 133.882 47.1886 134.621 48.0402C135.375 48.8786 136.558 49.2978 138.169 49.2978C138.764 49.2978 139.365 49.2518 139.973 49.1601C140.594 49.0685 141.169 48.9244 141.699 48.7279V50.1624C141.182 50.3196 140.621 50.4439 140.013 50.5357C139.418 50.6274 138.751 50.6733 138.011 50.6733Z" fill="white"/>
<path d="M148.373 50.6727C146.734 50.6727 145.538 50.26 144.785 49.4348C144.045 48.5964 143.676 47.3911 143.676 45.8192C143.676 44.2602 144.053 43.0616 144.805 42.2232C145.558 41.3848 146.749 40.9656 148.373 40.9656C149.999 40.9656 151.189 41.3848 151.941 42.2232C152.695 43.0616 153.071 44.2602 153.071 45.8192C153.071 47.3911 152.702 48.5964 151.961 49.4348C151.222 50.26 150.026 50.6727 148.373 50.6727ZM148.373 49.2973C149.496 49.2973 150.29 49.0221 150.752 48.4719C151.215 47.9087 151.446 47.0244 151.446 45.8192C151.446 44.6139 151.209 43.7363 150.732 43.1861C150.27 42.6228 149.483 42.3411 148.373 42.3411C147.264 42.3411 146.47 42.6228 145.995 43.1861C145.533 43.7363 145.301 44.6139 145.301 45.8192C145.301 47.0244 145.533 47.9087 145.995 48.4719C146.457 49.0221 147.25 49.2973 148.373 49.2973Z" fill="white"/>
<path d="M155.058 50.4766V49.1208H156.525V50.4766H155.058Z" fill="white"/>
</svg>
