<svg width="207" height="59" viewBox="0 0 207 59" fill="none" xmlns="http://www.w3.org/2000/svg">
<path d="M29.5 0.380615C25.6261 0.380615 21.7899 1.13707 18.2108 2.60653C14.6317 4.07616 11.3797 6.23006 8.6403 8.94541C5.90101 11.6609 3.72813 14.8844 2.24554 18.4323C0.763123 21.9801 0 25.7828 0 29.6228C0 33.4629 0.763123 37.2656 2.24554 40.8134C3.72813 44.3613 5.90101 47.5848 8.6403 50.3003C11.3797 53.0156 14.6317 55.1695 18.2108 56.6392C21.7899 58.1086 25.6261 58.8651 29.5 58.8651V44.244C27.5629 44.244 25.6449 43.8658 23.8554 43.1309C22.0658 42.3962 20.4398 41.3192 19.0702 39.9616C17.7005 38.6039 16.6141 36.9921 15.8729 35.2181C15.1315 33.4442 14.75 31.543 14.75 29.6228C14.75 27.7027 15.1315 25.8015 15.8729 24.0276C16.6141 22.2536 17.7005 20.6418 19.0702 19.2841C20.4398 17.9265 22.0658 16.8495 23.8554 16.1148C25.6449 15.3799 27.5629 15.0017 29.5 15.0017V0.380615Z" fill="#0F52FF"/>
<path d="M29.5 39.3702C34.9308 39.3702 39.3333 35.0062 39.3333 29.6228C39.3333 24.2395 34.9308 19.8754 29.5 19.8754C24.0692 19.8754 19.6667 24.2395 19.6667 29.6228C19.6667 35.0062 24.0692 39.3702 29.5 39.3702Z" fill="#0F52FF"/>
<path d="M0 29.6228C0 33.4629 0.763123 37.2656 2.24554 40.8134C3.72813 44.3612 5.90101 47.5848 8.6403 50.3003C11.3797 53.0156 14.6317 55.1695 18.2108 56.6391C21.7899 58.1086 25.6261 58.8651 29.5 58.8651C33.3739 58.8651 37.2101 58.1086 40.7892 56.6391C44.3683 55.1695 47.6202 53.0156 50.3597 50.3003C53.099 47.5848 55.2719 44.3612 56.7545 40.8134C58.2369 37.2656 59 33.4629 59 29.6228H44.25C44.25 31.543 43.8685 33.4442 43.1271 35.2181C42.3859 36.992 41.2995 38.6039 39.9298 39.9615C38.5602 41.3192 36.9342 42.3962 35.1446 43.1309C33.3551 43.8658 31.4371 44.2439 29.5 44.2439C27.5629 44.2439 25.6449 43.8658 23.8554 43.1309C22.0658 42.3962 20.4398 41.3192 19.0702 39.9615C17.7005 38.6039 16.6141 36.992 15.8729 35.2181C15.1315 33.4442 14.75 31.543 14.75 29.6228H0Z" fill="#5BD0F4"/>
<path d="M39.3334 29.623C39.3334 27.0378 38.2974 24.5585 36.4533 22.7305C34.6092 20.9024 32.1081 19.8754 29.5001 19.8754C26.8921 19.8754 24.3911 20.9024 22.5469 22.7305C20.7027 24.5585 19.6667 27.0378 19.6667 29.623H29.5001H39.3334Z" fill="#5BD0F4"/>
<path d="M74.4066 18.6361H70.7427V38.8132H74.4066V18.6361Z" fill="#0F52FF"/>
<path d="M76.7992 31.6653C76.7992 36.3349 80.056 39.2173 84.3597 39.2173C88.6633 39.2173 91.9201 36.3349 91.9201 31.6653C91.9201 26.9957 88.6633 24.1133 84.3597 24.1133C80.056 24.1133 76.7992 26.9957 76.7992 31.6653ZM80.4631 31.6653C80.4631 28.8981 82.0915 27.284 84.3597 27.284C86.6278 27.284 88.2562 28.8981 88.2562 31.6653C88.2562 34.4324 86.6278 36.0466 84.3597 36.0466C82.0915 36.0466 80.4631 34.4324 80.4631 31.6653Z" fill="#0F52FF"/>
<path d="M105.013 24.5168V26.448H104.722C103.85 25.2086 102.454 24.1133 99.9533 24.1133C96.5221 24.1133 93.4397 26.9957 93.4397 31.4347C93.4397 35.8737 96.5221 38.7561 99.9533 38.7561C102.454 38.7561 103.85 37.6319 104.664 36.5078H104.955V37.8914C104.955 40.6585 103.326 41.9268 100.942 41.9268C98.5575 41.9268 97.3362 40.6585 96.8418 39.0155L93.556 40.4279C94.3121 42.5897 96.522 44.9822 101 44.9822C105.595 44.9822 108.619 42.5897 108.619 37.9778V24.5168H105.013ZM101.058 35.6431C98.7902 35.6431 97.1036 34.0289 97.1036 31.4347C97.1036 28.8405 98.7902 27.2263 101.058 27.2263C103.326 27.2263 105.013 28.8405 105.013 31.4347C105.013 34.0289 103.326 35.6431 101.058 35.6431Z" fill="#0F52FF"/>
<path d="M110.989 31.6653C110.989 36.3349 114.246 39.2173 118.55 39.2173C122.853 39.2173 126.11 36.3349 126.11 31.6653C126.11 26.9957 122.853 24.1133 118.55 24.1133C114.246 24.1133 110.989 26.9957 110.989 31.6653ZM114.653 31.6653C114.653 28.8981 116.282 27.284 118.55 27.284C120.818 27.284 122.446 28.8981 122.446 31.6653C122.446 34.4324 120.818 36.0466 118.55 36.0466C116.282 36.0466 114.653 34.4324 114.653 31.6653Z" fill="#0F52FF"/>
<path d="M128.986 20.3655C128.986 21.8356 130.12 22.8444 131.575 22.8444C133.028 22.8444 134.163 21.8356 134.163 20.3655C134.163 18.8955 133.028 17.8866 131.575 17.8866C130.12 17.8866 128.986 18.8955 128.986 20.3655ZM133.406 24.5162H129.743V38.8132H133.406V24.5162Z" fill="#5BD0F4"/>
<path d="M136.671 44.5787H140.336V36.969H140.626C141.44 38.122 142.836 39.2173 145.337 39.2173C148.768 39.2173 151.851 36.3349 151.851 31.6653C151.851 26.9957 148.768 24.1133 145.337 24.1133C142.836 24.1133 141.44 25.2086 140.568 26.4481H140.277V24.5168H136.671V44.5787ZM144.231 36.1043C141.964 36.1043 140.277 34.4901 140.277 31.6653C140.277 28.8405 141.964 27.2263 144.231 27.2263C146.5 27.2263 148.186 28.8405 148.186 31.6653C148.186 34.4901 146.5 36.1043 144.231 36.1043Z" fill="#5BD0F4"/>
<path d="M153.989 28.5235C153.989 31.3483 156.372 32.386 159.396 32.9625L160.153 33.1065C161.955 33.4524 162.769 33.8849 162.769 34.8072C162.769 35.7296 161.955 36.4502 160.27 36.4502C158.582 36.4502 157.217 35.7584 156.837 33.683L153.464 34.5477C153.96 37.5455 156.489 39.2173 160.27 39.2173C163.933 39.2173 166.318 37.5167 166.318 34.519C166.318 31.5211 163.875 30.7142 160.619 30.08L159.862 29.9358C158.35 29.6476 157.535 29.244 157.535 28.2929C157.535 27.4282 158.292 26.8804 159.688 26.8804C161.084 26.8804 162.072 27.4569 162.421 29.0134L165.736 28.0047C165.038 25.6987 162.916 24.1133 159.688 24.1133C156.256 24.1133 153.989 25.6987 153.989 28.5235Z" fill="#5BD0F4"/>
<path d="M182.775 38.8132V24.5162H179.112V31.8953C179.112 34.5472 177.804 36.1037 175.564 36.1037C173.586 36.1037 172.482 35.0373 172.482 32.8753V24.5162H168.817V33.0483C168.817 36.5938 171.058 39.0438 174.431 39.0438C177.076 39.0438 178.298 37.8908 178.879 36.6802H179.169V38.8132H182.775Z" fill="#5BD0F4"/>
<path d="M186.025 24.5165V38.8134H189.69V30.2814C189.69 28.3213 190.621 27.226 192.306 27.226C193.761 27.226 194.633 28.0331 194.633 29.5896V38.8134H198.297V30.2814C198.297 28.3213 199.228 27.226 200.914 27.226C202.368 27.226 203.24 28.0331 203.24 29.5896V38.8134H206.905V29.4166C206.905 25.9577 204.752 24.2859 202.077 24.2859C199.722 24.2859 198.646 25.3236 197.948 26.5342H197.657C196.988 25.1795 195.796 24.2859 193.702 24.2859C191.609 24.2859 190.474 25.2083 189.923 26.3036H189.631V24.5165H186.025Z" fill="#5BD0F4"/>
</svg>
