<svg width="295" height="59" viewBox="0 0 295 59" fill="none" xmlns="http://www.w3.org/2000/svg">
<path d="M41.8181 48.7845L2.33861 21.7896C-1.66215 19.0541 -0.302154 13.3584 4.6867 12.0191L46.6463 0.730256C47.5351 0.412336 48.4876 0.309135 49.4248 0.429221C50.3619 0.549307 51.2566 0.889215 52.0347 1.42073C52.8127 1.95225 53.4517 2.66006 53.8985 3.4854C54.3453 4.31073 54.5871 5.22981 54.6038 6.16633L52.1171 44.4479C51.8222 48.9918 45.8188 51.52 41.8181 48.7845Z" fill="#E9327C"/>
<path d="M29.2964 55.4483L6.03784 10.3608C5.50618 9.32931 5.27222 8.17232 5.36177 7.01742C5.45132 5.86251 5.86089 4.75455 6.54532 3.81573C7.22975 2.87691 8.16245 2.1437 9.24056 1.69695C10.3187 1.2502 11.5003 1.10728 12.6552 1.28393L55.7591 7.87833C56.7515 8.03017 57.6933 8.41334 58.5072 8.99632C59.3211 9.57931 59.9838 10.3455 60.4407 11.2318C60.8977 12.1181 61.1359 13.0993 61.1357 14.0947C61.1355 15.0901 60.8971 16.0712 60.4398 16.9574L40.5835 55.4505C40.0503 56.479 39.2414 57.3419 38.2456 57.9443C37.2498 58.5467 36.1058 58.8653 34.9393 58.8651C33.7727 58.8649 32.6288 58.5458 31.6333 57.943C30.6378 57.3402 29.8292 56.4771 29.2964 55.4483V55.4483Z" fill="#1DACE3"/>
<path d="M54.4982 7.68466L33.0111 4.39728L6.62985 11.4978L17.1599 31.918L41.8181 48.7846C42.3621 49.1525 42.9605 49.4344 43.5918 49.6201L52.9577 31.4642L54.4982 7.68466Z" fill="#3A68B8"/>
<path d="M163.335 12.9547C163.335 12.163 163.572 11.3891 164.016 10.7308C164.459 10.0725 165.09 9.55945 165.828 9.25648C166.566 8.95351 167.378 8.87425 168.161 9.0287C168.944 9.18315 169.664 9.56439 170.229 10.1242C170.793 10.684 171.178 11.3973 171.334 12.1737C171.49 12.9502 171.41 13.7551 171.104 14.4865C170.798 15.2179 170.281 15.8431 169.617 16.2829C168.953 16.7228 168.172 16.9576 167.373 16.9576C166.306 16.9468 165.285 16.5216 164.53 15.7732C163.775 15.0248 163.346 14.013 163.335 12.9547V12.9547ZM164.008 18.9143H170.74V41.1516H164.008V18.9143Z" fill="white"/>
<path d="M199.81 30.0331C199.889 31.503 199.673 32.9737 199.176 34.3606C198.678 35.7475 197.91 37.0233 196.913 38.1146C195.917 39.2058 194.713 40.0911 193.37 40.7194C192.027 41.3477 190.572 41.7067 189.089 41.7757C187.841 41.843 186.594 41.6344 185.438 41.1651C184.282 40.6957 183.245 39.9774 182.403 39.062V50.0476H175.674V18.9145H182.403V21.0043C183.245 20.0893 184.282 19.3713 185.438 18.9024C186.594 18.4334 187.841 18.2252 189.089 18.2928C190.572 18.3615 192.027 18.7202 193.37 19.3483C194.712 19.9764 195.917 20.8614 196.913 21.9525C197.909 23.0436 198.678 24.3193 199.176 25.7061C199.673 27.0928 199.889 28.5634 199.81 30.0331ZM193.081 30.0331C193.054 28.992 192.719 27.9817 192.116 27.1287C191.513 26.2757 190.67 25.6179 189.692 25.2376C188.714 24.8572 187.644 24.7713 186.617 24.9906C185.59 25.2098 184.651 25.7245 183.918 26.4701C183.184 27.2158 182.689 28.1593 182.494 29.1826C182.298 30.206 182.412 31.2637 182.82 32.2233C183.229 33.1829 183.913 34.0019 184.789 34.5777C185.664 35.1535 186.691 35.4606 187.742 35.4605C188.464 35.4927 189.184 35.3733 189.855 35.1101C190.527 34.8469 191.135 34.4458 191.639 33.9333C192.143 33.4207 192.532 32.8083 192.781 32.1361C193.029 31.4639 193.132 30.7473 193.081 30.0331V30.0331Z" fill="white"/>
<path d="M220.583 34.4767C220.583 39.5921 216.096 41.7713 211.25 41.7713C209.292 41.9469 207.327 41.5363 205.607 40.5924C203.888 39.6485 202.493 38.215 201.605 36.4771L207.436 33.1875C207.673 33.9908 208.181 34.6891 208.876 35.1656C209.57 35.642 210.408 35.8678 211.25 35.8052C212.865 35.8052 213.671 35.3144 213.671 34.4265C213.671 31.979 202.634 33.2704 202.634 25.5744C202.634 20.7273 206.761 18.2819 211.437 18.2819C213.191 18.2273 214.928 18.6399 216.466 19.4767C218.005 20.3134 219.289 21.5438 220.185 23.0396L214.443 26.1088C214.192 25.5251 213.773 25.0276 213.238 24.6784C212.704 24.3293 212.077 24.144 211.437 24.1456C210.271 24.1456 209.553 24.5818 209.553 25.3911C209.547 27.9434 220.583 26.2528 220.583 34.4767Z" fill="white"/>
<path d="M245.179 18.9141V41.1514H238.449V39.0572C237.672 39.9797 236.685 40.7066 235.57 41.1783C234.454 41.6499 233.242 41.853 232.032 41.7709C227.501 41.7709 223.644 38.5686 223.644 32.5632V18.9141H230.373V31.5903C230.316 32.1203 230.377 32.6561 230.551 33.1606C230.724 33.665 231.007 34.1259 231.378 34.5111C231.75 34.8962 232.202 35.1965 232.702 35.3909C233.203 35.5853 233.74 35.6692 234.277 35.6368C236.744 35.6368 238.458 34.2145 238.458 31.0558V18.9141H245.179Z" fill="white"/>
<path d="M283.752 27.4954V41.151H277.022V28.0757C277.022 25.8528 275.944 24.4284 273.792 24.4284C271.547 24.4284 270.293 25.9859 270.293 28.6101V41.151H263.561V28.0757C263.561 25.8528 262.485 24.4284 260.331 24.4284C258.088 24.4284 256.832 25.9859 256.832 28.6101V41.151H250.102V18.9138H256.843V20.9512C257.54 20.044 258.456 19.3245 259.506 18.8584C260.556 18.3924 261.708 18.1946 262.855 18.2833C264.007 18.2275 265.154 18.4684 266.184 18.9826C267.214 19.4968 268.092 20.2667 268.733 21.2173C269.479 20.2227 270.467 19.4318 271.605 18.9187C272.743 18.4056 273.994 18.187 275.24 18.2833C280.389 18.292 283.752 21.9372 283.752 27.4954Z" fill="white"/>
<path d="M289.454 18.7766C292.213 18.7766 294.449 16.5596 294.449 13.8248C294.449 11.09 292.213 8.87299 289.454 8.87299C286.695 8.87299 284.458 11.09 284.458 13.8248C284.458 16.5596 286.695 18.7766 289.454 18.7766Z" fill="white"/>
<path d="M71.4542 8.68552H78.1859V41.1514H71.4542V8.68552ZM81.9974 30.0328C81.99 27.7014 82.6807 25.4203 83.9819 23.4783C85.2832 21.5363 87.1365 20.0207 89.3073 19.1234C91.478 18.2262 93.8686 17.9876 96.1762 18.4379C98.4838 18.8883 100.605 20.0072 102.27 21.6531C103.936 23.2991 105.072 25.3979 105.533 27.6839C105.995 29.97 105.762 32.3404 104.863 34.495C103.965 36.6496 102.442 38.4915 100.487 39.7875C98.5318 41.0835 96.2328 41.7753 93.8809 41.7753C92.3188 41.7919 90.7691 41.4998 89.3223 40.916C87.8754 40.3322 86.5604 39.4684 85.454 38.3752C84.3477 37.282 83.4722 35.9812 82.8787 34.5489C82.2852 33.1165 81.9856 31.5812 81.9974 30.0328V30.0328ZM99.048 30.0328C99.0216 29.0271 98.6966 28.0515 98.1138 27.228C97.5309 26.4045 96.716 25.7696 95.7711 25.4027C94.8261 25.0359 93.793 24.9534 92.8009 25.1655C91.8089 25.3777 90.902 25.875 90.1937 26.5955C89.4853 27.3159 89.007 28.2273 88.8185 29.2158C88.63 30.2043 88.7398 31.226 89.134 32.1529C89.5282 33.0799 90.1894 33.8711 91.0349 34.4276C91.8804 34.984 92.8726 35.2809 93.8875 35.2813C94.5824 35.3009 95.2739 35.1776 95.9184 34.9191C96.5629 34.6607 97.1463 34.2727 97.632 33.7795C98.1177 33.2864 98.495 32.6989 98.7402 32.0541C98.9855 31.4092 99.0932 30.721 99.0568 30.0328H99.048ZM132.606 18.9076V40.0346C132.606 47.5059 126.728 50.6624 120.762 50.6624C118.662 50.8195 116.559 50.4005 114.683 49.4512C112.807 48.502 111.231 47.0591 110.128 45.2809L115.87 41.9891C116.333 42.9172 117.071 43.6829 117.986 44.1838C118.9 44.6848 119.947 44.897 120.986 44.7922C121.649 44.882 122.325 44.823 122.962 44.6196C123.599 44.4161 124.182 44.0734 124.668 43.6168C125.154 43.1601 125.53 42.6012 125.769 41.9812C126.008 41.3612 126.103 40.6959 126.048 40.0346V37.9884C125.259 38.944 124.256 39.7032 123.118 40.2051C121.981 40.7071 120.74 40.9378 119.496 40.8788C116.535 40.7875 113.726 39.5574 111.664 37.4489C109.602 35.3403 108.449 32.519 108.449 29.5823C108.449 26.6457 109.602 23.8243 111.664 21.7158C113.726 19.6073 116.535 18.3771 119.496 18.2859C120.74 18.2269 121.981 18.4576 123.118 18.9596C124.256 19.4615 125.259 20.2207 126.048 21.1763V18.9076H132.606ZM126.056 29.5812C126.101 28.5072 125.82 27.4445 125.25 26.5299C124.68 25.6153 123.848 24.8905 122.859 24.4488C121.87 24.0071 120.771 23.8686 119.702 24.0511C118.634 24.2336 117.645 24.7288 116.862 25.4731C116.08 26.2173 115.54 27.1765 115.311 28.2274C115.083 29.2783 115.178 30.3728 115.582 31.3702C115.986 32.3676 116.682 33.2223 117.581 33.8244C118.479 34.4266 119.539 34.7485 120.623 34.749C121.33 34.7983 122.04 34.7003 122.706 34.4614C123.373 34.2225 123.982 33.8479 124.493 33.3618C125.005 32.8757 125.409 32.2887 125.678 31.6388C125.947 30.9888 126.076 30.2901 126.056 29.5878V29.5812ZM136.417 30.0175C136.41 27.6862 137.1 25.4051 138.402 23.4631C139.703 21.521 141.556 20.0054 143.727 19.1082C145.898 18.2109 148.288 17.9723 150.596 18.4227C152.903 18.873 155.024 19.992 156.69 21.6379C158.356 23.2838 159.491 25.3827 159.953 27.6687C160.414 29.9547 160.181 32.3251 159.283 34.4797C158.385 36.6343 156.861 38.4762 154.906 39.7722C152.951 41.0682 150.652 41.76 148.3 41.7601C146.74 41.7766 145.191 41.4849 143.745 40.9021C142.3 40.3193 140.985 39.4569 139.879 38.3653C138.773 37.2737 137.897 35.9748 137.303 34.5442C136.708 33.1136 136.407 31.58 136.417 30.0328V30.0175ZM153.468 30.0175C153.442 29.0112 153.117 28.0349 152.534 27.2107C151.951 26.3864 151.136 25.7509 150.19 25.3836C149.245 25.0164 148.211 24.9336 147.218 25.1458C146.226 25.358 145.318 25.8556 144.609 26.5765C143.901 27.2973 143.422 28.2094 143.234 29.1985C143.045 30.1876 143.155 31.2099 143.55 32.1374C143.944 33.0648 144.606 33.8564 145.452 34.4128C146.299 34.9693 147.292 35.2661 148.307 35.266C149 35.2843 149.689 35.1605 150.331 34.9024C150.974 34.6443 151.555 34.2575 152.04 33.7662C152.524 33.2749 152.901 32.6897 153.147 32.0472C153.393 31.4048 153.502 30.719 153.468 30.0328V30.0175Z" fill="white"/>
</svg>
