<svg width="213" height="59" viewBox="0 0 213 59" fill="none" xmlns="http://www.w3.org/2000/svg">
<path fill-rule="evenodd" clip-rule="evenodd" d="M105.236 6.75945C107.289 4.72468 110.617 4.72468 112.67 6.75945C114.722 8.79436 114.722 12.0935 112.67 14.1284L100.154 26.5346C96.5608 21.7609 96.9512 14.9717 101.325 10.6359L105.236 6.75945Z" fill="#4F9E91"/>
<path fill-rule="evenodd" clip-rule="evenodd" d="M123.127 34.7496C125.181 36.7844 125.181 40.0837 123.127 42.1185C121.076 44.1534 117.747 44.1534 115.694 42.1185L103.179 29.7125C107.994 26.1506 114.843 26.5374 119.217 30.8732L123.127 34.7496Z" fill="#EBE1C5"/>
<path fill-rule="evenodd" clip-rule="evenodd" d="M94.8906 52.4858C92.8379 54.5207 89.5095 54.5207 87.4568 52.4858C85.4039 50.4508 85.4039 47.1517 87.4568 45.1168L99.9721 32.7108C103.565 37.4844 103.175 44.2737 98.8012 48.6093L94.8906 52.4858Z" fill="#EBCC6E"/>
<path fill-rule="evenodd" clip-rule="evenodd" d="M76.9986 24.4947C74.9458 22.4598 74.9458 19.1606 76.9986 17.1257C79.0515 15.0908 82.3797 15.0908 84.4326 17.1257L96.9481 29.5318C92.1323 33.0938 85.2831 32.7068 80.9092 28.3711L76.9986 24.4947Z" fill="#ED834E"/>
<path fill-rule="evenodd" clip-rule="evenodd" d="M102.439 50.9662C105.466 47.6301 106.873 43.3613 106.659 39.1583L112.67 45.1164C112.685 45.1312 112.7 45.146 112.715 45.1608V49.4146C112.715 52.2923 110.362 54.6252 107.458 54.6252C105.1 54.6252 103.105 53.0861 102.439 50.9662Z" fill="#ED834E"/>
<path fill-rule="evenodd" clip-rule="evenodd" d="M78.5315 31.9772C81.8968 34.9778 86.2033 36.3724 90.4433 36.1608L84.4328 42.1189C84.4177 42.1338 84.4028 42.1487 84.388 42.1635H80.0968C77.1937 42.1637 74.8402 39.8307 74.8402 36.9529C74.8402 34.6156 76.3928 32.6376 78.5315 31.9772Z" fill="#4F9E91"/>
<path fill-rule="evenodd" clip-rule="evenodd" d="M121.595 27.2684C118.23 24.2678 113.923 22.8732 109.683 23.0846L115.694 17.1267C115.709 17.1118 115.724 17.0969 115.739 17.0819H120.03C122.934 17.0819 125.287 19.415 125.287 22.2927C125.287 24.6301 123.734 26.608 121.595 27.2684Z" fill="#EBCC6E"/>
<path fill-rule="evenodd" clip-rule="evenodd" d="M97.6878 8.27885C94.6607 11.6148 93.254 15.8836 93.4673 20.0867L87.4568 14.1286C87.4417 14.1138 87.4268 14.099 87.4117 14.0842V9.83048C87.4117 6.95273 89.7651 4.61972 92.6682 4.61972C95.0262 4.61972 97.0216 6.15888 97.6878 8.27885Z" fill="#EBE1C5"/>
<path fill-rule="evenodd" clip-rule="evenodd" d="M92.6684 0.380615C87.4033 0.380615 83.135 4.6116 83.135 9.83071V11.6687C79.9674 10.8483 76.4569 11.6683 73.9747 14.1289C70.2516 17.8194 70.2516 23.8028 73.9747 27.4934L75.2857 28.7929C72.4607 30.4331 70.5634 33.4735 70.5634 36.9531C70.5634 42.1722 74.8317 46.4032 80.0968 46.4032H81.9509C81.1233 49.5431 81.9504 53.0229 84.4327 55.4834C88.1558 59.1739 94.192 59.1739 97.915 55.4834L101.825 51.6071C105.275 48.1876 106.886 43.6356 106.659 39.1584L112.67 45.1166C116.393 48.8071 122.429 48.8071 126.152 45.1166C129.876 41.426 129.876 35.4426 126.152 31.7522L124.842 30.4528C127.666 28.8126 129.563 25.7722 129.563 22.2926C129.563 17.0735 125.294 12.8425 120.03 12.8425H118.176C119.003 9.70241 118.176 6.22261 115.694 3.76203C111.971 0.0715196 105.935 0.0715196 102.212 3.76203L98.3011 7.63846C94.8514 11.058 93.2403 15.6098 93.4676 20.087L87.457 14.1289C87.4419 14.114 87.4269 14.0992 87.4119 14.0844V9.83071C87.4119 6.95297 89.7653 4.6201 92.6684 4.6201C95.0264 4.6201 97.0217 6.15912 97.688 8.27908C97.8854 8.06148 98.0897 7.84785 98.301 7.63846L100.901 5.0616C99.2459 2.26128 96.1787 0.380615 92.6684 0.380615ZM115.739 17.082C115.724 17.0968 115.709 17.1117 115.694 17.1265L109.683 23.0845C113.924 22.8731 118.23 24.2675 121.595 27.2683C123.734 26.6079 125.287 24.6298 125.287 22.2926C125.287 19.4148 122.934 17.082 120.03 17.082H115.739ZM84.3878 42.1637C84.4027 42.1488 84.4176 42.1338 84.4327 42.119L90.4432 36.1609C86.2032 36.3725 81.8969 34.9779 78.5315 31.9774C76.3929 32.6378 74.8402 34.6157 74.8402 36.9531C74.8402 39.8309 77.1937 42.1637 80.0968 42.1637H84.3878ZM78.3676 31.8293C78.2045 31.6799 78.0437 31.5267 77.8853 31.3696V31.3698C78.0437 31.5268 78.2045 31.6799 78.3676 31.8293ZM107.458 58.8651C103.948 58.8651 100.881 56.9843 99.2261 54.184L101.825 51.6071C102.037 51.3977 102.241 51.1841 102.439 50.9665C103.105 53.0864 105.1 54.6256 107.458 54.6256C110.361 54.6256 112.715 52.2927 112.715 49.415V45.1613C113.947 46.3664 115.427 47.1717 116.992 47.5768V49.415C116.992 54.6341 112.723 58.8651 107.458 58.8651ZM112.67 6.75971C110.617 4.72494 107.289 4.72494 105.236 6.75971L101.325 10.6361C96.9513 14.972 96.561 21.7612 100.154 26.5348L112.67 14.1287C114.723 12.0938 114.723 8.79463 112.67 6.75971ZM123.127 42.1189C125.181 40.084 125.181 36.7848 123.127 34.7499L119.217 30.8734C114.843 26.5378 107.994 26.1508 103.178 29.7127L115.694 42.1189C117.747 44.1538 121.076 44.1538 123.127 42.1189ZM94.8908 52.4857C92.8379 54.5206 89.5097 54.5206 87.4568 52.4857C85.4041 50.4508 85.4041 47.1516 87.4568 45.1167L99.9723 32.7106C103.566 37.4842 103.175 44.2736 98.8014 48.6093L94.8908 52.4857ZM76.9988 17.1265C74.9461 19.1615 74.9461 22.4606 76.9988 24.4955L80.9094 28.372C85.2834 32.7076 92.1325 33.0946 96.9482 29.5327L84.4327 17.1265C82.3799 15.0918 79.0516 15.0918 76.9988 17.1265Z" fill="#3D3A2C"/>
<path d="M0 19.4902H4.67521V33.891H12.705V37.7922H0V19.4902Z" fill="white"/>
<path d="M21.1937 38.185C19.6265 38.185 18.2529 37.9057 17.0731 37.3472C15.8933 36.7711 14.9776 35.9856 14.326 34.9907C13.6922 33.9782 13.3752 32.8175 13.3752 31.5082C13.3752 30.1991 13.6922 29.0471 14.326 28.0522C14.9776 27.0397 15.8933 26.2542 17.0731 25.6957C18.2529 25.1196 19.6265 24.8316 21.1937 24.8316C22.761 24.8316 24.1344 25.1196 25.3142 25.6957C26.4941 26.2542 27.401 27.0397 28.0348 28.0522C28.6864 29.0471 29.0121 30.1991 29.0121 31.5082C29.0121 32.8175 28.6864 33.9782 28.0348 34.9907C27.401 35.9856 26.4941 36.7711 25.3142 37.3472C24.1344 37.9057 22.761 38.185 21.1937 38.185ZM21.1937 34.5979C22.127 34.5979 22.8666 34.3273 23.4124 33.7863C23.976 33.2276 24.2576 32.4684 24.2576 31.5082C24.2576 30.5483 23.976 29.7977 23.4124 29.2566C22.8666 28.6979 22.127 28.4188 21.1937 28.4188C20.2603 28.4188 19.512 28.6979 18.9486 29.2566C18.4026 29.7977 18.1297 30.5483 18.1297 31.5082C18.1297 32.4684 18.4026 33.2276 18.9486 33.7863C19.512 34.3273 20.2603 34.5979 21.1937 34.5979Z" fill="white"/>
<path d="M37.7443 43.8144C36.8991 43.8144 36.045 43.7358 35.1821 43.5787C34.3369 43.4216 33.606 43.2122 32.9898 42.9503V39.756C34.3808 40.3494 35.9657 40.6462 37.7443 40.6462C39.0297 40.6462 39.9542 40.3843 40.5177 39.8607C41.0988 39.3371 41.3894 38.569 41.3894 37.5565V36.7973C40.8787 37.2337 40.2447 37.574 39.4875 37.8184C38.7479 38.0629 37.9555 38.185 37.1103 38.185C35.772 38.185 34.5922 37.9057 33.5708 37.3472C32.5496 36.7885 31.7483 36.003 31.1672 34.9907C30.6037 33.9782 30.322 32.8175 30.322 31.5082C30.322 30.1817 30.6037 29.0122 31.1672 27.9998C31.7307 26.9874 32.5231 26.2105 33.5445 25.6695C34.5657 25.111 35.7368 24.8316 37.0575 24.8316C38.8713 24.8316 40.368 25.3815 41.5478 26.4812V25.2243H46.0382V36.9282C46.0382 39.1101 45.3602 40.8034 44.0043 42.0078C42.6661 43.2122 40.5793 43.8144 37.7443 43.8144ZM38.2725 34.6241C38.9945 34.6241 39.6372 34.4408 40.2007 34.0742C40.7642 33.7077 41.1604 33.219 41.3894 32.608V30.4087C41.1428 29.7977 40.7378 29.3176 40.1743 28.9685C39.6108 28.6021 38.9769 28.4188 38.2725 28.4188C37.3217 28.4188 36.5556 28.6979 35.9745 29.2566C35.3934 29.7977 35.1028 30.5395 35.1028 31.4821C35.1028 32.4421 35.3934 33.2102 35.9745 33.7863C36.5556 34.3448 37.3217 34.6241 38.2725 34.6241Z" fill="white"/>
<path d="M55.0361 38.185C53.4689 38.185 52.0955 37.9057 50.9156 37.3472C49.7358 36.7711 48.82 35.9856 48.1686 34.9907C47.5346 33.9782 47.2176 32.8175 47.2176 31.5082C47.2176 30.1991 47.5346 29.0471 48.1686 28.0522C48.82 27.0397 49.7358 26.2542 50.9156 25.6957C52.0955 25.1196 53.4689 24.8316 55.0361 24.8316C56.6034 24.8316 57.9768 25.1196 59.1566 25.6957C60.3365 26.2542 61.2434 27.0397 61.8774 28.0522C62.5288 29.0471 62.8547 30.1991 62.8547 31.5082C62.8547 32.8175 62.5288 33.9782 61.8774 34.9907C61.2434 35.9856 60.3365 36.7711 59.1566 37.3472C57.9768 37.9057 56.6034 38.185 55.0361 38.185ZM55.0361 34.5979C55.9694 34.5979 56.709 34.3273 57.255 33.7863C57.8184 33.2276 58.1002 32.4684 58.1002 31.5082C58.1002 30.5483 57.8184 29.7977 57.255 29.2566C56.709 28.6979 55.9694 28.4188 55.0361 28.4188C54.1029 28.4188 53.3544 28.6979 52.791 29.2566C52.245 29.7977 51.9721 30.5483 51.9721 31.5082C51.9721 32.4684 52.245 33.2276 52.791 33.7863C53.3544 34.3273 54.1029 34.5979 55.0361 34.5979Z" fill="white"/>
<path d="M137.418 19.4902H142.094V37.7922H137.418V19.4902Z" fill="white"/>
<path d="M144.461 25.2243H148.952V26.4812C150.131 25.3815 151.627 24.8316 153.441 24.8316C154.762 24.8316 155.933 25.111 156.954 25.6695C157.976 26.2105 158.768 26.9874 159.331 27.9998C159.895 28.9947 160.177 30.1556 160.177 31.4821C160.177 32.7912 159.895 33.9608 159.331 34.9907C158.768 36.003 157.976 36.7885 156.954 37.3472C155.951 37.9057 154.78 38.185 153.441 38.185C152.596 38.185 151.786 38.0541 151.012 37.7922C150.255 37.5479 149.62 37.2074 149.11 36.771V43.5263H144.461V25.2243ZM152.227 34.5979C153.178 34.5979 153.944 34.3187 154.524 33.76C155.105 33.2015 155.397 32.4421 155.397 31.4821C155.397 30.522 155.105 29.7716 154.524 29.2304C153.944 28.6718 153.178 28.3925 152.227 28.3925C151.522 28.3925 150.888 28.5758 150.324 28.9424C149.761 29.2915 149.357 29.7716 149.11 30.3824V32.608C149.357 33.219 149.761 33.7077 150.324 34.0742C150.888 34.4234 151.522 34.5979 152.227 34.5979Z" fill="white"/>
<path d="M167.107 38.185C166.087 38.185 165.022 38.0803 163.912 37.8708C162.803 37.6788 161.921 37.3995 161.27 37.0329V33.6553C161.992 34.0743 162.855 34.4234 163.859 34.7027C164.88 34.9644 165.813 35.0954 166.659 35.0954C167.274 35.0954 167.724 35.0517 168.005 34.9644C168.288 34.8772 168.428 34.7027 168.428 34.4408C168.428 34.2313 168.332 34.0655 168.138 33.9433C167.962 33.8037 167.627 33.664 167.134 33.5244C166.659 33.3673 166.104 33.2015 165.47 33.0269C164.396 32.7127 163.551 32.3898 162.934 32.0581C162.318 31.7264 161.861 31.3075 161.56 30.8013C161.261 30.2952 161.112 29.6581 161.112 28.89C161.112 27.5284 161.649 26.5161 162.723 25.8528C163.815 25.172 165.303 24.8316 167.187 24.8316C168.103 24.8316 169.063 24.9277 170.066 25.1196C171.088 25.3117 171.853 25.5648 172.364 25.879V29.2043C171.836 28.8551 171.131 28.567 170.251 28.3402C169.388 28.1132 168.578 27.9998 167.82 27.9998C167.223 27.9998 166.755 28.0608 166.421 28.183C166.087 28.2878 165.92 28.4798 165.92 28.7591C165.92 29.021 166.087 29.2217 166.421 29.3613C166.755 29.5009 167.354 29.6755 168.217 29.8849C168.78 30.0246 169.018 30.0856 168.93 30.0682C170.057 30.365 170.928 30.6966 171.545 31.0632C172.162 31.4298 172.592 31.8662 172.839 32.3723C173.104 32.861 173.236 33.4895 173.236 34.2575C173.236 35.4619 172.708 36.4219 171.651 37.1376C170.612 37.8359 169.097 38.185 167.107 38.185Z" fill="white"/>
<path d="M180.176 38.1851C178.434 38.1851 177.122 37.7051 176.242 36.7451C175.379 35.785 174.947 34.5196 174.947 32.9486V25.2245H179.596V32.4248C179.596 33.8737 180.256 34.598 181.577 34.598C182.176 34.598 182.722 34.4584 183.215 34.1791C183.707 33.8998 184.112 33.4896 184.429 32.9486V25.2245H189.078V37.7923H184.589V36.4309C184.043 37.0068 183.382 37.4432 182.607 37.74C181.833 38.0368 181.022 38.1851 180.176 38.1851Z" fill="white"/>
<path d="M191.458 25.2243H195.765V26.5859C196.293 26.0274 196.901 25.5997 197.587 25.3029C198.273 24.9887 199.004 24.8316 199.779 24.8316C200.73 24.8316 201.488 24.9712 202.051 25.2506C202.633 25.5299 203.098 25.9488 203.451 26.5073C203.979 25.9837 204.622 25.5734 205.379 25.2768C206.137 24.98 206.903 24.8316 207.677 24.8316C209.35 24.8316 210.539 25.2594 211.243 26.1146C211.947 26.9525 212.299 28.1655 212.299 29.754V37.7922H207.862V30.4087C207.862 29.7104 207.73 29.2043 207.465 28.89C207.202 28.5758 206.761 28.4188 206.146 28.4188C205.353 28.4188 204.709 28.6979 204.217 29.2566C204.234 29.5532 204.243 30.0072 204.243 30.6181V37.7922H199.806V30.2254C199.806 29.5795 199.692 29.1169 199.463 28.8377C199.233 28.5584 198.828 28.4188 198.248 28.4188C197.349 28.4188 196.575 28.9161 195.923 29.9112V37.7922H191.458V25.2243Z" fill="white"/>
</svg>
