<svg xmlns="http://www.w3.org/2000/svg" width="29" height="29" viewBox="0 0 29 29" fill="none">
<path d="M79.5 19.937C84 19.937 87.656 15.464 87.656 9.968C87.656 4.472 84 0 79.5 0C78.3631 0.0217413 77.2463 0.303398 76.2351 0.823397C75.2239 1.34339 74.3451 2.08794 73.666 3C72.1266 4.99573 71.3082 7.45381 71.344 9.974C71.344 15.465 75 19.937 79.5 19.937ZM79.5 1.813C83 1.813 85.844 5.472 85.844 9.969C85.844 14.466 82.998 18.125 79.5 18.125C76.002 18.125 73.156 14.465 73.155 9.969C73.154 5.473 76 1.813 79.5 1.813ZM85.844 18.125C85.6036 18.125 85.373 18.2205 85.203 18.3905C85.033 18.5605 84.9375 18.7911 84.9375 19.0315C84.9375 19.2719 85.033 19.5025 85.203 19.6725C85.373 19.8425 85.6036 19.938 85.844 19.938C87.526 19.9399 89.1386 20.6088 90.3279 21.7982C91.5172 22.9875 92.1861 24.6 92.188 26.282C92.1875 26.5221 92.0918 26.7523 91.922 26.9221C91.7522 27.0918 91.5221 27.1875 91.282 27.188H67.72C67.4798 27.1875 67.2497 27.0918 67.08 26.9221C66.9102 26.7523 66.8145 26.5221 66.814 26.282C66.8161 24.6001 67.4852 22.9877 68.6744 21.7985C69.8637 20.6092 71.4761 19.9401 73.158 19.938C73.3982 19.938 73.6287 19.8425 73.7986 19.6726C73.9685 19.5027 74.064 19.2723 74.064 19.032C74.064 18.7917 73.9685 18.5613 73.7986 18.3914C73.6287 18.2215 73.3982 18.126 73.158 18.126C70.9954 18.1279 68.922 18.9875 67.3926 20.5164C65.8631 22.0453 65.0026 24.1185 65 26.281C65.0008 27.0019 65.2875 27.693 65.7972 28.2027C66.307 28.7125 66.9981 28.9992 67.719 29H91.282C92.0027 28.9989 92.6936 28.7121 93.2031 28.2024C93.7126 27.6927 93.9992 27.0017 94 26.281C93.9974 24.1187 93.1372 22.0457 91.6083 20.5168C90.0793 18.9878 88.0063 18.1276 85.844 18.125Z" fill="#E8E8E8"/>
</svg>